<mxfile host="app.diagrams.net" agent="Mozilla/5.0 (Windows NT 10.0; Win64; x64; rv:133.0) Gecko/20100101 Firefox/133.0" version="25.0.3">
  <diagram name="Страница — 1" id="wTqK4NzI408r5Xp5IWBN">
    <mxGraphModel dx="2671" dy="1148" grid="1" gridSize="10" guides="1" tooltips="1" connect="1" arrows="1" fold="1" page="1" pageScale="1" pageWidth="827" pageHeight="1169" math="0" shadow="0">
      <root>
        <mxCell id="0" />
        <mxCell id="1" parent="0" />
        <mxCell id="Wllns_wpcgOPLxhc4V-1-3" value="" style="edgeStyle=orthogonalEdgeStyle;rounded=0;orthogonalLoop=1;jettySize=auto;html=1;" edge="1" parent="1" source="Wllns_wpcgOPLxhc4V-1-1" target="Wllns_wpcgOPLxhc4V-1-2">
          <mxGeometry relative="1" as="geometry" />
        </mxCell>
        <mxCell id="Wllns_wpcgOPLxhc4V-1-1" value="int main()" style="shape=process;whiteSpace=wrap;html=1;backgroundOutline=1;" vertex="1" parent="1">
          <mxGeometry x="354" width="120" height="60" as="geometry" />
        </mxCell>
        <mxCell id="Wllns_wpcgOPLxhc4V-1-5" value="" style="edgeStyle=orthogonalEdgeStyle;rounded=0;orthogonalLoop=1;jettySize=auto;html=1;" edge="1" parent="1" source="Wllns_wpcgOPLxhc4V-1-2" target="Wllns_wpcgOPLxhc4V-1-4">
          <mxGeometry relative="1" as="geometry" />
        </mxCell>
        <mxCell id="Wllns_wpcgOPLxhc4V-1-2" value="setlocale(LC_ALL, &quot;Russian&quot;); " style="whiteSpace=wrap;html=1;" vertex="1" parent="1">
          <mxGeometry x="316" y="100" width="196" height="60" as="geometry" />
        </mxCell>
        <mxCell id="Wllns_wpcgOPLxhc4V-1-7" value="" style="edgeStyle=orthogonalEdgeStyle;rounded=0;orthogonalLoop=1;jettySize=auto;html=1;" edge="1" parent="1" source="Wllns_wpcgOPLxhc4V-1-4" target="Wllns_wpcgOPLxhc4V-1-6">
          <mxGeometry relative="1" as="geometry" />
        </mxCell>
        <mxCell id="Wllns_wpcgOPLxhc4V-1-32" value="" style="edgeStyle=orthogonalEdgeStyle;rounded=0;orthogonalLoop=1;jettySize=auto;html=1;" edge="1" parent="1" source="Wllns_wpcgOPLxhc4V-1-4" target="Wllns_wpcgOPLxhc4V-1-31">
          <mxGeometry relative="1" as="geometry" />
        </mxCell>
        <mxCell id="Wllns_wpcgOPLxhc4V-1-4" value="(f(a) * f(b) &amp;lt; 0)" style="rhombus;whiteSpace=wrap;html=1;" vertex="1" parent="1">
          <mxGeometry x="344" y="200" width="139" height="80" as="geometry" />
        </mxCell>
        <mxCell id="Wllns_wpcgOPLxhc4V-1-9" value="" style="edgeStyle=orthogonalEdgeStyle;rounded=0;orthogonalLoop=1;jettySize=auto;html=1;" edge="1" parent="1" source="Wllns_wpcgOPLxhc4V-1-6" target="Wllns_wpcgOPLxhc4V-1-8">
          <mxGeometry relative="1" as="geometry" />
        </mxCell>
        <mxCell id="Wllns_wpcgOPLxhc4V-1-22" value="" style="edgeStyle=orthogonalEdgeStyle;rounded=0;orthogonalLoop=1;jettySize=auto;html=1;" edge="1" parent="1" source="Wllns_wpcgOPLxhc4V-1-6" target="Wllns_wpcgOPLxhc4V-1-21">
          <mxGeometry relative="1" as="geometry" />
        </mxCell>
        <mxCell id="Wllns_wpcgOPLxhc4V-1-6" value="while (abs(a - b) &amp;gt; E)" style="rhombus;whiteSpace=wrap;html=1;" vertex="1" parent="1">
          <mxGeometry x="130" y="290" width="150" height="80" as="geometry" />
        </mxCell>
        <mxCell id="Wllns_wpcgOPLxhc4V-1-11" value="" style="edgeStyle=orthogonalEdgeStyle;rounded=0;orthogonalLoop=1;jettySize=auto;html=1;" edge="1" parent="1" source="Wllns_wpcgOPLxhc4V-1-8" target="Wllns_wpcgOPLxhc4V-1-10">
          <mxGeometry relative="1" as="geometry" />
        </mxCell>
        <mxCell id="Wllns_wpcgOPLxhc4V-1-8" value="c = (a + b) / 2;" style="whiteSpace=wrap;html=1;" vertex="1" parent="1">
          <mxGeometry x="145" y="400" width="120" height="60" as="geometry" />
        </mxCell>
        <mxCell id="Wllns_wpcgOPLxhc4V-1-13" value="" style="edgeStyle=orthogonalEdgeStyle;rounded=0;orthogonalLoop=1;jettySize=auto;html=1;" edge="1" parent="1" source="Wllns_wpcgOPLxhc4V-1-10" target="Wllns_wpcgOPLxhc4V-1-12">
          <mxGeometry relative="1" as="geometry" />
        </mxCell>
        <mxCell id="Wllns_wpcgOPLxhc4V-1-15" value="" style="edgeStyle=orthogonalEdgeStyle;rounded=0;orthogonalLoop=1;jettySize=auto;html=1;" edge="1" parent="1" source="Wllns_wpcgOPLxhc4V-1-10" target="Wllns_wpcgOPLxhc4V-1-14">
          <mxGeometry relative="1" as="geometry" />
        </mxCell>
        <mxCell id="Wllns_wpcgOPLxhc4V-1-10" value="(f(a) * f(c) &amp;gt; 0)" style="rhombus;whiteSpace=wrap;html=1;" vertex="1" parent="1">
          <mxGeometry x="147.5" y="490" width="115" height="80" as="geometry" />
        </mxCell>
        <mxCell id="Wllns_wpcgOPLxhc4V-1-16" style="edgeStyle=orthogonalEdgeStyle;rounded=0;orthogonalLoop=1;jettySize=auto;html=1;exitX=0.5;exitY=1;exitDx=0;exitDy=0;" edge="1" parent="1" source="Wllns_wpcgOPLxhc4V-1-12">
          <mxGeometry relative="1" as="geometry">
            <mxPoint x="200" y="680" as="targetPoint" />
            <Array as="points">
              <mxPoint x="80" y="680" />
            </Array>
          </mxGeometry>
        </mxCell>
        <mxCell id="Wllns_wpcgOPLxhc4V-1-12" value="a = c;" style="whiteSpace=wrap;html=1;" vertex="1" parent="1">
          <mxGeometry x="20" y="585" width="120" height="60" as="geometry" />
        </mxCell>
        <mxCell id="Wllns_wpcgOPLxhc4V-1-17" style="edgeStyle=orthogonalEdgeStyle;rounded=0;orthogonalLoop=1;jettySize=auto;html=1;" edge="1" parent="1" source="Wllns_wpcgOPLxhc4V-1-14">
          <mxGeometry relative="1" as="geometry">
            <mxPoint x="200" y="680" as="targetPoint" />
            <Array as="points">
              <mxPoint x="330" y="680" />
            </Array>
          </mxGeometry>
        </mxCell>
        <mxCell id="Wllns_wpcgOPLxhc4V-1-14" value="b = c;" style="whiteSpace=wrap;html=1;" vertex="1" parent="1">
          <mxGeometry x="270" y="585" width="120" height="60" as="geometry" />
        </mxCell>
        <mxCell id="Wllns_wpcgOPLxhc4V-1-18" value="" style="endArrow=classic;html=1;rounded=0;exitX=0.5;exitY=1;exitDx=0;exitDy=0;" edge="1" parent="1" source="Wllns_wpcgOPLxhc4V-1-19">
          <mxGeometry width="50" height="50" relative="1" as="geometry">
            <mxPoint x="200" y="740" as="sourcePoint" />
            <mxPoint x="200" y="270" as="targetPoint" />
            <Array as="points">
              <mxPoint x="200" y="790" />
              <mxPoint x="100" y="790" />
              <mxPoint y="790" />
              <mxPoint y="270" />
            </Array>
          </mxGeometry>
        </mxCell>
        <mxCell id="Wllns_wpcgOPLxhc4V-1-19" value="counter++;" style="rounded=0;whiteSpace=wrap;html=1;" vertex="1" parent="1">
          <mxGeometry x="140" y="710" width="120" height="60" as="geometry" />
        </mxCell>
        <mxCell id="Wllns_wpcgOPLxhc4V-1-20" value="" style="endArrow=classic;html=1;rounded=0;entryX=0.5;entryY=0;entryDx=0;entryDy=0;" edge="1" parent="1" target="Wllns_wpcgOPLxhc4V-1-19">
          <mxGeometry width="50" height="50" relative="1" as="geometry">
            <mxPoint x="200" y="680" as="sourcePoint" />
            <mxPoint x="250" y="630" as="targetPoint" />
          </mxGeometry>
        </mxCell>
        <mxCell id="Wllns_wpcgOPLxhc4V-1-26" value="" style="edgeStyle=orthogonalEdgeStyle;rounded=0;orthogonalLoop=1;jettySize=auto;html=1;" edge="1" parent="1" source="Wllns_wpcgOPLxhc4V-1-21" target="Wllns_wpcgOPLxhc4V-1-25">
          <mxGeometry relative="1" as="geometry" />
        </mxCell>
        <mxCell id="Wllns_wpcgOPLxhc4V-1-21" value="cout &amp;lt;&amp;lt; &quot;Первое решение: &quot; &amp;lt;&amp;lt; a &amp;lt;&amp;lt; endl;" style="shape=parallelogram;perimeter=parallelogramPerimeter;whiteSpace=wrap;html=1;fixedSize=1;" vertex="1" parent="1">
          <mxGeometry x="530" y="380" width="270" height="60" as="geometry" />
        </mxCell>
        <mxCell id="Wllns_wpcgOPLxhc4V-1-28" value="" style="edgeStyle=orthogonalEdgeStyle;rounded=0;orthogonalLoop=1;jettySize=auto;html=1;" edge="1" parent="1" source="Wllns_wpcgOPLxhc4V-1-25" target="Wllns_wpcgOPLxhc4V-1-27">
          <mxGeometry relative="1" as="geometry" />
        </mxCell>
        <mxCell id="Wllns_wpcgOPLxhc4V-1-25" value="cout &amp;lt;&amp;lt; &quot;Второе решение: &quot; &amp;lt;&amp;lt; b &amp;lt;&amp;lt; endl;" style="shape=parallelogram;perimeter=parallelogramPerimeter;whiteSpace=wrap;html=1;fixedSize=1;" vertex="1" parent="1">
          <mxGeometry x="530" y="470" width="270" height="60" as="geometry" />
        </mxCell>
        <mxCell id="Wllns_wpcgOPLxhc4V-1-30" style="edgeStyle=orthogonalEdgeStyle;rounded=0;orthogonalLoop=1;jettySize=auto;html=1;" edge="1" parent="1" source="Wllns_wpcgOPLxhc4V-1-27">
          <mxGeometry relative="1" as="geometry">
            <mxPoint x="890" y="720" as="targetPoint" />
            <Array as="points">
              <mxPoint x="665" y="720" />
              <mxPoint x="890" y="720" />
            </Array>
          </mxGeometry>
        </mxCell>
        <mxCell id="Wllns_wpcgOPLxhc4V-1-27" value="cout &amp;lt;&amp;lt; &quot;Количество потребовавшихся делений: &quot; &amp;lt;&amp;lt; counter &amp;lt;&amp;lt; endl;" style="shape=parallelogram;perimeter=parallelogramPerimeter;whiteSpace=wrap;html=1;fixedSize=1;" vertex="1" parent="1">
          <mxGeometry x="450" y="560" width="430" height="60" as="geometry" />
        </mxCell>
        <mxCell id="Wllns_wpcgOPLxhc4V-1-33" style="edgeStyle=orthogonalEdgeStyle;rounded=0;orthogonalLoop=1;jettySize=auto;html=1;exitX=0.5;exitY=1;exitDx=0;exitDy=0;" edge="1" parent="1" source="Wllns_wpcgOPLxhc4V-1-31">
          <mxGeometry relative="1" as="geometry">
            <mxPoint x="890" y="720" as="targetPoint" />
            <Array as="points">
              <mxPoint x="1105" y="720" />
            </Array>
          </mxGeometry>
        </mxCell>
        <mxCell id="Wllns_wpcgOPLxhc4V-1-31" value="cout &amp;lt;&amp;lt; &quot;Решений на выделенном промежутке нет!&quot;;" style="shape=parallelogram;perimeter=parallelogramPerimeter;whiteSpace=wrap;html=1;fixedSize=1;" vertex="1" parent="1">
          <mxGeometry x="940" y="380" width="330" height="60" as="geometry" />
        </mxCell>
        <mxCell id="Wllns_wpcgOPLxhc4V-1-34" value="" style="endArrow=classic;html=1;rounded=0;entryX=0.5;entryY=0;entryDx=0;entryDy=0;" edge="1" parent="1" target="Wllns_wpcgOPLxhc4V-1-35">
          <mxGeometry width="50" height="50" relative="1" as="geometry">
            <mxPoint x="890" y="720" as="sourcePoint" />
            <mxPoint x="884.75" y="800" as="targetPoint" />
          </mxGeometry>
        </mxCell>
        <mxCell id="Wllns_wpcgOPLxhc4V-1-35" value="return 0;" style="ellipse;whiteSpace=wrap;html=1;" vertex="1" parent="1">
          <mxGeometry x="810" y="780" width="163" height="80" as="geometry" />
        </mxCell>
        <mxCell id="Wllns_wpcgOPLxhc4V-1-36" value="{" style="text;html=1;align=center;verticalAlign=middle;whiteSpace=wrap;rounded=0;" vertex="1" parent="1">
          <mxGeometry x="370" y="70" width="60" height="30" as="geometry" />
        </mxCell>
        <mxCell id="Wllns_wpcgOPLxhc4V-1-39" value="}" style="text;html=1;align=center;verticalAlign=middle;whiteSpace=wrap;rounded=0;" vertex="1" parent="1">
          <mxGeometry x="861.5" y="860" width="60" height="30" as="geometry" />
        </mxCell>
        <mxCell id="Wllns_wpcgOPLxhc4V-1-40" value="if" style="text;html=1;align=center;verticalAlign=middle;whiteSpace=wrap;rounded=0;" vertex="1" parent="1">
          <mxGeometry x="414" y="190" width="60" height="30" as="geometry" />
        </mxCell>
        <mxCell id="Wllns_wpcgOPLxhc4V-1-41" value="else" style="text;html=1;align=center;verticalAlign=middle;whiteSpace=wrap;rounded=0;" vertex="1" parent="1">
          <mxGeometry x="550" y="210" width="60" height="30" as="geometry" />
        </mxCell>
        <mxCell id="Wllns_wpcgOPLxhc4V-1-42" value="{" style="text;html=1;align=center;verticalAlign=middle;whiteSpace=wrap;rounded=0;" vertex="1" parent="1">
          <mxGeometry x="160" y="240" width="60" height="30" as="geometry" />
        </mxCell>
        <mxCell id="Wllns_wpcgOPLxhc4V-1-43" value="{" style="text;html=1;align=center;verticalAlign=middle;whiteSpace=wrap;rounded=0;" vertex="1" parent="1">
          <mxGeometry x="160" y="370" width="60" height="30" as="geometry" />
        </mxCell>
        <mxCell id="Wllns_wpcgOPLxhc4V-1-45" value="}" style="text;html=1;align=center;verticalAlign=middle;whiteSpace=wrap;rounded=0;" vertex="1" parent="1">
          <mxGeometry x="650" y="340" width="60" height="30" as="geometry" />
        </mxCell>
        <mxCell id="Wllns_wpcgOPLxhc4V-1-46" value="if" style="text;html=1;align=center;verticalAlign=middle;whiteSpace=wrap;rounded=0;" vertex="1" parent="1">
          <mxGeometry x="210" y="485" width="60" height="30" as="geometry" />
        </mxCell>
        <mxCell id="Wllns_wpcgOPLxhc4V-1-47" value="1" style="text;html=1;align=center;verticalAlign=middle;whiteSpace=wrap;rounded=0;" vertex="1" parent="1">
          <mxGeometry x="190" y="370" width="60" height="30" as="geometry" />
        </mxCell>
        <mxCell id="Wllns_wpcgOPLxhc4V-1-48" value="0" style="text;html=1;align=center;verticalAlign=middle;whiteSpace=wrap;rounded=0;" vertex="1" parent="1">
          <mxGeometry x="270" y="300" width="60" height="30" as="geometry" />
        </mxCell>
        <mxCell id="Wllns_wpcgOPLxhc4V-1-49" value="1" style="text;html=1;align=center;verticalAlign=middle;whiteSpace=wrap;rounded=0;" vertex="1" parent="1">
          <mxGeometry x="300" y="210" width="60" height="30" as="geometry" />
        </mxCell>
        <mxCell id="Wllns_wpcgOPLxhc4V-1-50" value="1" style="text;html=1;align=center;verticalAlign=middle;whiteSpace=wrap;rounded=0;" vertex="1" parent="1">
          <mxGeometry x="100" y="500" width="60" height="30" as="geometry" />
        </mxCell>
        <mxCell id="Wllns_wpcgOPLxhc4V-1-51" value="else" style="text;html=1;align=center;verticalAlign=middle;whiteSpace=wrap;rounded=0;" vertex="1" parent="1">
          <mxGeometry x="270" y="500" width="60" height="30" as="geometry" />
        </mxCell>
        <mxCell id="Wllns_wpcgOPLxhc4V-1-52" value="}" style="text;html=1;align=center;verticalAlign=middle;whiteSpace=wrap;rounded=0;" vertex="1" parent="1">
          <mxGeometry x="650" y="680" width="60" height="30" as="geometry" />
        </mxCell>
      </root>
    </mxGraphModel>
  </diagram>
</mxfile>
